# xmcd
#
# Track frame offsets:
#	150
#	18958
#	23319
#	35231
#	39711
#	54859
#	59753
#
# Disc length: 817 seconds
#
# Revision: 1
# Processed by: cddbd v1.5.2PL0 Copyright (c) Steve Scherf et al.
# Submitted via: audiograbber 1.83.01
#
DISCID=53032f07
DTITLE=Basta - Fanclub - Edition Vol.3
DYEAR=2007
DGENRE=A Cappella
TTITLE0=Ipanema
TTITLE1=Die Ramsteiners - Teewurst
TTITLE2=SOS
TTITLE3=Die Ramsteiners - Vorurteile
TTITLE4=hey, hey, hey
TTITLE5=Die Ramsteiners - Vogelgrippe
TTITLE6=Lottomillion
EXTD=
EXTT0=
EXTT1=
EXTT2=
EXTT3=
EXTT4=
EXTT5=
EXTT6=
PLAYORDER=
